<svg xmlns="http://www.w3.org/2000/svg" xmlns:xlink="http://www.w3.org/1999/xlink" width="9.9173583984375" height="8.25" viewBox="0 0 9.9173583984375 8.25" fill="none"><path d="M0 4.125C0.430833 1.77833 2.48737 0 4.95871 0C7.43004 0 9.48612 1.77833 9.91741 4.125C9.48658 6.47167 7.43004 8.25 4.95871 8.25C2.48737 8.25 0.431292 6.47167 0 4.125ZM4.95871 6.41667C4.9962 6.41667 5.03369 6.41575 5.07114 6.41392C5.10858 6.41208 5.14598 6.40933 5.18334 6.40562C5.22064 6.40195 5.25786 6.39737 5.29499 6.39187C5.33207 6.38637 5.36901 6.37995 5.40581 6.37262C5.44257 6.36533 5.47915 6.35713 5.51554 6.34801C5.55193 6.33889 5.58804 6.32885 5.62393 6.31799C5.65982 6.30713 5.69543 6.29535 5.73072 6.2827C5.76606 6.27009 5.80103 6.25657 5.83568 6.24223C5.87033 6.22788 5.90462 6.21266 5.93853 6.19662C5.9724 6.18062 6.00591 6.16376 6.039 6.14607C6.07204 6.12838 6.10468 6.1099 6.13685 6.09061C6.16903 6.07131 6.2007 6.05128 6.23191 6.03043C6.26308 6.00962 6.29374 5.98803 6.32385 5.96567C6.35397 5.94335 6.38353 5.92029 6.41254 5.8965C6.44151 5.87272 6.46988 5.8482 6.4977 5.82303C6.52547 5.79782 6.55261 5.77198 6.57914 5.74544C6.60568 5.7189 6.63153 5.69177 6.65674 5.66399C6.6819 5.63617 6.70642 5.6078 6.73021 5.57883C6.754 5.54982 6.77705 5.52026 6.79937 5.49015C6.82174 5.46003 6.84333 5.42937 6.86414 5.3982C6.88499 5.36699 6.90502 5.33532 6.92432 5.30315C6.94361 5.27097 6.96208 5.23834 6.97977 5.20529C6.99747 5.1722 7.01433 5.1387 7.03033 5.10483C7.04637 5.07091 7.06159 5.03662 7.07593 5.00198C7.09028 4.96733 7.1038 4.93235 7.1164 4.89702C7.12905 4.86172 7.14083 4.82611 7.15169 4.79023C7.16256 4.75434 7.17259 4.71822 7.18172 4.68183C7.19084 4.64544 7.19904 4.60886 7.20633 4.5721C7.21366 4.53531 7.22008 4.49837 7.22558 4.46128C7.23108 4.42415 7.23566 4.38694 7.23933 4.34963C7.24304 4.31229 7.24579 4.27489 7.24762 4.23743C7.24946 4.19997 7.25037 4.16249 7.25037 4.125C7.25037 4.08751 7.24946 4.05003 7.24762 4.01257C7.24579 3.97511 7.24304 3.93771 7.23933 3.90037C7.23566 3.86306 7.23108 3.82585 7.22558 3.78872C7.22008 3.75163 7.21366 3.71469 7.20633 3.6779C7.19904 3.64114 7.19084 3.60456 7.18172 3.56817C7.17259 3.53178 7.16256 3.49565 7.15169 3.45977C7.14083 3.42387 7.12905 3.38827 7.1164 3.35298C7.1038 3.31766 7.09028 3.28268 7.07593 3.24802C7.06159 3.21337 7.04637 3.17909 7.03033 3.14518C7.01433 3.11128 6.99747 3.0778 6.97977 3.04472C6.96208 3.01164 6.94361 2.97902 6.92432 2.94685C6.90502 2.91468 6.88499 2.883 6.86414 2.85182C6.84333 2.82063 6.82174 2.78998 6.79937 2.75985C6.77705 2.72973 6.754 2.70017 6.73021 2.67118C6.70642 2.64219 6.6819 2.6138 6.65674 2.58601C6.63153 2.55822 6.60568 2.53107 6.57914 2.50455C6.55261 2.47802 6.52547 2.45217 6.4977 2.42699C6.46988 2.4018 6.44151 2.37731 6.41254 2.35352C6.38353 2.32973 6.35397 2.30666 6.32385 2.28432C6.29374 2.26197 6.26308 2.24038 6.23191 2.21955C6.2007 2.19871 6.16903 2.17866 6.13685 2.15937C6.10468 2.14009 6.07204 2.12161 6.039 2.10393C6.00591 2.08625 5.9724 2.06939 5.93853 2.05336C5.90462 2.03732 5.87033 2.02213 5.83568 2.00778C5.80103 1.99342 5.76606 1.97993 5.73072 1.9673C5.69543 1.95466 5.65982 1.9429 5.62393 1.93201C5.58804 1.92113 5.55193 1.91113 5.51554 1.90201C5.47915 1.8929 5.44257 1.88469 5.40581 1.87737C5.36901 1.87005 5.33207 1.86364 5.29499 1.85814C5.25786 1.85263 5.22064 1.84805 5.18334 1.84437C5.14598 1.84069 5.10858 1.83793 5.07114 1.83609C5.03369 1.83425 4.9962 1.83333 4.95871 1.83333C4.92122 1.83333 4.88372 1.83425 4.84628 1.83609C4.80883 1.83793 4.77143 1.84069 4.73408 1.84437C4.69677 1.84805 4.65955 1.85263 4.62243 1.85814C4.58535 1.86364 4.54839 1.87005 4.5116 1.87737C4.47485 1.88469 4.43827 1.8929 4.40188 1.90201C4.36549 1.91113 4.32936 1.92113 4.29348 1.93201C4.25758 1.9429 4.22198 1.95466 4.18669 1.9673C4.15137 1.97993 4.11638 1.99342 4.08173 2.00778C4.04708 2.02213 4.01279 2.03732 3.97889 2.05336C3.94499 2.06939 3.9115 2.08625 3.87843 2.10393C3.84535 2.12161 3.81273 2.14009 3.78056 2.15937C3.74839 2.17866 3.71671 2.19871 3.68553 2.21955C3.65434 2.24038 3.62369 2.26197 3.59356 2.28432C3.56344 2.30666 3.53388 2.32973 3.50489 2.35352C3.4759 2.37731 3.4475 2.4018 3.41972 2.42699C3.39193 2.45217 3.36478 2.47802 3.33826 2.50455C3.31173 2.53107 3.28588 2.55822 3.26069 2.58601C3.23551 2.6138 3.21102 2.64219 3.18723 2.67118C3.16343 2.70017 3.14037 2.72973 3.11802 2.75985C3.09568 2.78998 3.07409 2.82063 3.05326 2.85182C3.03242 2.883 3.01236 2.91468 2.99308 2.94685C2.9738 2.97902 2.95531 3.01164 2.93764 3.04472C2.91996 3.07779 2.9031 3.11128 2.88706 3.14518C2.87103 3.17909 2.85583 3.21337 2.84148 3.24802C2.82713 3.28268 2.81364 3.31765 2.801 3.35294C2.78837 3.38826 2.77661 3.42387 2.76572 3.45977C2.75483 3.49565 2.74483 3.53178 2.73572 3.56817C2.72661 3.60456 2.71839 3.64114 2.71107 3.6779C2.70376 3.71469 2.69735 3.75163 2.69185 3.78872C2.68634 3.82585 2.68175 3.86306 2.67808 3.90037C2.6744 3.93771 2.67164 3.97511 2.6698 4.01257C2.66796 4.05003 2.66704 4.08751 2.66704 4.125C2.66704 4.16249 2.66796 4.19997 2.6698 4.23743C2.67164 4.27489 2.6744 4.31229 2.67808 4.34963C2.68175 4.38694 2.68634 4.42415 2.69185 4.46128C2.69735 4.49837 2.70376 4.53531 2.71107 4.5721C2.71839 4.60886 2.72661 4.64544 2.73572 4.68183C2.74483 4.71822 2.75483 4.75434 2.76572 4.79023C2.77661 4.82611 2.78837 4.86172 2.801 4.89702C2.81364 4.93235 2.82713 4.96733 2.84148 5.00198C2.85583 5.03662 2.87103 5.07091 2.88706 5.10483C2.9031 5.1387 2.91996 5.1722 2.93764 5.20529C2.95531 5.23834 2.9738 5.27097 2.99308 5.30315C3.01236 5.33532 3.03242 5.36699 3.05326 5.3982C3.07409 5.42937 3.09568 5.46003 3.11802 5.49015C3.14037 5.52026 3.16343 5.54982 3.18723 5.57883C3.21102 5.6078 3.23551 5.63617 3.26069 5.66399C3.28588 5.69177 3.31173 5.7189 3.33826 5.74544C3.36478 5.77198 3.39193 5.79782 3.41972 5.82303C3.4475 5.8482 3.4759 5.87272 3.50489 5.8965C3.53388 5.92029 3.56344 5.94335 3.59356 5.96567C3.62369 5.98803 3.65434 6.00962 3.68553 6.03043C3.71671 6.05128 3.74839 6.07131 3.78056 6.09061C3.81273 6.1099 3.84535 6.12838 3.87843 6.14607C3.9115 6.16376 3.94499 6.18062 3.97889 6.19662C4.01279 6.21266 4.04708 6.22788 4.08173 6.24223C4.11638 6.25657 4.15135 6.27009 4.18665 6.2827C4.22197 6.29535 4.25758 6.30713 4.29348 6.31799C4.32936 6.32885 4.36549 6.33889 4.40188 6.34801C4.43827 6.35713 4.47485 6.36533 4.5116 6.37262C4.54839 6.37995 4.58535 6.38637 4.62243 6.39187C4.65955 6.39737 4.69677 6.40195 4.73408 6.40562C4.77143 6.40933 4.80883 6.41208 4.84628 6.41392C4.88372 6.41575 4.92122 6.41667 4.95871 6.41667ZM4.95871 5.5C4.91365 5.5 4.86874 5.4978 4.82391 5.4934C4.77913 5.48895 4.73463 5.48235 4.69044 5.4736C4.64631 5.4648 4.60267 5.45385 4.55954 5.44078C4.51646 5.42772 4.47411 5.41255 4.4325 5.39532C4.39091 5.37808 4.35026 5.35888 4.31053 5.33766C4.27081 5.31644 4.23224 5.29329 4.1948 5.26827C4.15734 5.24324 4.12121 5.21643 4.08641 5.18787C4.0516 5.15932 4.01828 5.12912 3.98644 5.09726C3.9546 5.06541 3.92439 5.03209 3.89582 4.9973C3.86725 4.96251 3.84046 4.92635 3.81544 4.8889C3.79042 4.85146 3.76729 4.81291 3.74607 4.77317C3.72484 4.73344 3.70561 4.69278 3.68837 4.65117C3.67114 4.6096 3.65599 4.56725 3.64292 4.52416C3.62984 4.48105 3.61891 4.43741 3.61013 4.39326C3.60134 4.34908 3.59474 4.30459 3.59033 4.2598C3.58592 4.21497 3.58371 4.17004 3.58371 4.125C3.58371 4.07996 3.58592 4.03503 3.59033 3.9902C3.59474 3.94541 3.60134 3.90092 3.61013 3.85674C3.61891 3.81259 3.62984 3.76895 3.64292 3.72584C3.65599 3.68275 3.67114 3.6404 3.68837 3.59879C3.70561 3.5572 3.72484 3.51655 3.74607 3.47682C3.76729 3.4371 3.79042 3.39853 3.81544 3.3611C3.84046 3.32364 3.86725 3.2875 3.89582 3.2527C3.92439 3.21789 3.9546 3.18457 3.98644 3.15273C4.01828 3.12089 4.0516 3.09068 4.08641 3.06211C4.12121 3.03354 4.15734 3.00675 4.1948 2.98173C4.23224 2.95671 4.27081 2.93359 4.31053 2.91236C4.35026 2.89113 4.39091 2.8719 4.4325 2.85467C4.47411 2.83743 4.51646 2.82228 4.55954 2.80921C4.60267 2.79614 4.64631 2.7852 4.69044 2.77642C4.73463 2.76763 4.77913 2.76104 4.82391 2.75662C4.86874 2.75221 4.91365 2.75 4.95871 2.75C5.00376 2.75 5.04868 2.75221 5.0935 2.75662C5.13828 2.76104 5.18279 2.76763 5.22697 2.77642C5.27111 2.7852 5.31474 2.79614 5.35787 2.80921C5.40095 2.82228 5.4433 2.83743 5.48487 2.85467C5.52649 2.8719 5.56714 2.89113 5.60688 2.91236C5.64662 2.93359 5.68517 2.95671 5.72261 2.98173C5.76006 3.00675 5.79622 3.03354 5.83101 3.06211C5.86579 3.09068 5.89912 3.12089 5.93097 3.15273C5.96282 3.18457 5.99303 3.21789 6.02158 3.2527C6.05014 3.2875 6.07695 3.32364 6.10197 3.3611C6.127 3.39853 6.15014 3.4371 6.17137 3.47682C6.19259 3.51655 6.21179 3.5572 6.22902 3.59879C6.24626 3.6404 6.26143 3.68275 6.27449 3.72584C6.28755 3.76895 6.29851 3.81259 6.30731 3.85674C6.31606 3.90092 6.32266 3.94541 6.32711 3.9902C6.33151 4.03503 6.33371 4.07996 6.33371 4.125C6.33371 4.17004 6.33151 4.21497 6.32711 4.2598C6.32266 4.30459 6.31606 4.34908 6.30731 4.39326C6.29851 4.43741 6.28755 4.48105 6.27449 4.52416C6.26143 4.56725 6.24626 4.6096 6.22902 4.65117C6.21179 4.69278 6.19259 4.73344 6.17137 4.77317C6.15014 4.81291 6.127 4.85146 6.10197 4.8889C6.07695 4.92635 6.05014 4.96251 6.02158 4.9973C5.99303 5.03209 5.96282 5.06541 5.93097 5.09726C5.89912 5.12912 5.86579 5.15932 5.83101 5.18787C5.79622 5.21643 5.76006 5.24324 5.72261 5.26827C5.68517 5.29329 5.64662 5.31644 5.60688 5.33766C5.56714 5.35888 5.52649 5.37808 5.48487 5.39532C5.4433 5.41255 5.40095 5.42772 5.35787 5.44078C5.31474 5.45385 5.27111 5.4648 5.22697 5.4736C5.18279 5.48235 5.13828 5.48895 5.0935 5.4934C5.04868 5.4978 5.00376 5.5 4.95871 5.5Z"   fill="#CCCCCC" ></path></svg>